<?xml version="1.0" encoding="UTF-8"?>
<!DOCTYPE svg PUBLIC "-//W3C//DTD SVG 1.1//EN" "http://www.w3.org/Graphics/SVG/1.1/DTD/svg11.dtd">
<!-- Creator: CorelDRAW 2019 (64-Bit) -->
<svg xmlns="http://www.w3.org/2000/svg" xml:space="preserve" width="28px" height="46px" version="1.1" style="shape-rendering:geometricPrecision; text-rendering:geometricPrecision; image-rendering:optimizeQuality; fill-rule:evenodd; clip-rule:evenodd"
viewBox="0 0 7.488 12.491"
 xmlns:xlink="http://www.w3.org/1999/xlink"
 xmlns:xodm="http://www.corel.com/coreldraw/odm/2003">
 <defs>
  <style type="text/css">
   <![CDATA[
    .fil0 {fill:white}
   ]]>
  </style>
 </defs>
 <g id="Layer_x0020_1">
  <metadata id="CorelCorpID_0Corel-Layer"/>
  <path class="fil0" d="M0.104 1.49l4.755 4.756 -4.754 4.755c-0.139,0.138 -0.139,0.357 0,0.496l0.89 0.89c0.138,0.138 0.358,0.139 0.496,0l5.888 -5.888 0.007 -0.007 0.008 -0.008 0.005 -0.005 0.005 -0.006 0.007 -0.009 0.005 -0.006 0.006 -0.008 0.005 -0.007 0.005 -0.007 0.004 -0.006 0.006 -0.011 0.002 -0.003 0.005 -0.01 0.003 -0.006 0.005 -0.009 0.003 -0.009 0.003 -0.005 0.004 -0.011 0.002 -0.006 0.002 -0.007 0.004 -0.011 0.001 -0.006 0.003 -0.01 0.001 -0.006 0.002 -0.008 0.002 -0.01 0.001 -0.008 0.001 -0.007 0.001 -0.01 0 -0.006 0.001 -0.012 0 -0.007 0 -0.008 0 -0.008 0 -0.009 -0.001 -0.008 0 -0.006 -0.003 -0.019 -0.001 -0.006 -0.002 -0.012 -0.002 -0.009 -0.001 -0.005 -0.002 -0.008 -0.003 -0.009 -0.003 -0.01 -0.002 -0.005 -0.003 -0.009 -0.003 -0.008 -0.004 -0.009 -0.003 -0.007 -0.003 -0.006 -0.005 -0.009 -0.004 -0.008 -0.003 -0.005 -0.006 -0.009 -0.005 -0.008 -0.004 -0.007 -0.007 -0.008 -0.004 -0.006 -0.006 -0.007 -0.005 -0.006 -0.008 -0.009 -0.011 -0.011 -5.894 -5.894c-0.138,-0.138 -0.357,-0.139 -0.496,0l-0.89 0.89c-0.139,0.139 -0.139,0.358 0,0.496z"/>
 </g>
</svg>
